<svg xmlns="http://www.w3.org/2000/svg" viewBox="0 0 256 256"><path fill="#b52e31" d="M34.628 72.875L128 11.52l93.372 61.355L217.371 204.48l-83.369 48.41-83.374-48.407zM128 38.473l77.629 51.277-21.234 65.556H149.44l-10.178 30.114-38.548-95.844zm0 130.062l41.78-24.233 10.18 25.46h40.873l-21.234-65.556 41.781-51.277zm-61.372-29.895l21.23-65.557-77.629-51.277L128 38.473zm0 0l21.238 65.56-21.24 13.487zm0 0l-21.235 13.485 21.235 65.556zm0 0l21.23 13.488-41.78 24.23zm0 0l41.78 24.23-21.23-65.555zm0 0L85.628 84.805zm0 0l-10.179-30.117 21.238-13.484zm0 0zM128 37.684v84.688l-32.156-20.1zm0 0V37.684L159.16 102.27zm0 0zm0 0z"/><path fill="#fff" d="M128 37.684v84.688l-32.156-20.1zm0 84.688V37.684L159.16 102.27zm0 0l10.176-30.117-21.234-13.484zm0 0l-21.238-13.484-10.176-30.117zm0 0l-21.23-13.488 41.78-24.23zm0 0l41.78-24.23-21.23 65.555zm0 0l21.235-13.488-21.235-65.556zm0 0l21.24-13.485-21.24-65.56zm0 0zm0 0zM85.628 84.805l77.628 51.277-21.234 65.557zm0 0l21.234 65.556-77.628-51.277zm0 0zm0 0zm0 0l-41.78 24.233 21.235 65.555zm0 0l21.235 65.555 41.78-24.233zm0 0l41.781-24.23-10.18 30.114zm0 0l-10.18 30.114h40.873zm0 0l10.178 30.114h21.235zm0 0zM128 168.535V37.684l32.156 20.1zm0 0v130.85l-32.156-20.1zm0 0zm0 0z"/><path fill="#fff" d="M128 168.535V37.684l32.156 20.1zm0 0v130.85l-32.156-20.1zm0 0zm0 0z"/></svg>
