<svg xmlns="http://www.w3.org/2000/svg" viewBox="0 0 512 512">
  <path fill="#F0DB4F" d="M82.138 0l44.83 493.717 184.41 51.283L335.543 512 512 82.138 82.138 0zm239.43 386.55c0 32.6-26.48 59.05-59.05 59.05-32.57 0-59.05-26.45-59.05-59.05 0-32.57 26.48-59.05 59.05-59.05 32.57 0 59.05 26.48 59.05 59.05zm0 0"/>
  <path fill="#323330" d="M356.422 386.55c0-39.398-32.07-71.48-71.488-71.48s-71.488 32.082-71.488 71.48c0 39.398 32.07 71.48 71.488 71.48s71.488-32.082 71.488-71.48zm0 0M398.39 47.35L357.65 465.5l70.984-19.676 15.757-175.844 68.508-191.238L398.39 47.35zm0 0"/>
  <path fill="#3B3A3B" d="M256 327.72c-39.414 0-71.484-32.07-71.484-71.484S216.59 184.75 256 184.75c39.402 0 71.484 32.07 71.484 71.484S295.406 327.72 256 327.72zm0 0"/>
</svg>
