<svg xmlns="http://www.w3.org/2000/svg" viewBox="0 0 512 512">
  <path fill="#8993BE" d="M512 256c0 141.385-114.615 256-256 256S0 397.385 0 256C0 114.615 114.615 0 256 0s256 114.615 256 256zm0 0"/>
  <path fill="#7377B8" d="M512 256c0-33.992-6.578-66.688-18.492-96.746L295.168 256l54.387 92.402C396.512 368.875 460.137 318.633 512 256zm0 0"/>
  <path fill="#556080" d="M256 0c-33.992 0-66.688 6.578-96.746 18.492L256 216.832l92.402-54.387C318.633 115.488 368.875 51.863 256 0zm0 0"/>
  <path fill="#8993BE" d="M255.996 512c33.992 0 66.688-6.578 96.746-18.492L256 295.168l-92.398 54.383C115.488 396.512 51.863 460.137 0 512zm0 0"/>
  <path fill="#7377B8" d="M255.996 512c-33.992 0-66.688-6.578-96.746-18.492L256 295.168l92.402 54.387C396.512 396.512 460.137 460.137 512 512zm0 0"/>
  <path fill="#556080" d="M256 512c141.382 0 256-114.618 256-256S397.382 0 256 0C114.618 0 0 114.618 0 256s114.618 256 256 256zm0-512c141.382 0 256 114.618 256 256s-114.618 256-256 256C114.618 512 0 397.382 0 256S114.618 0 256 0zm0 0"/>
  <path fill="#8993BE" d="M252.64 131.973c-38.082-26.62-87.86-45.414-140.59-45.414-2.867 0-5.74.04-8.621.117C57.637 49.945 35.73 72.703 19.535 100.52c-13.793 27.812-20.918 58.879-20.918 90.477 0 31.582 7.125 62.645 20.918 90.457 16.195 27.812 38.102 50.57 66.484 67.457a306.347 306.347 0 008.621.117c52.73 0 102.508-18.793 140.59-45.414 38.102-26.618 67.457-64.578 82.352-109.773 14.895-45.219 14.86-96.473-.105-141.676zm-3.223 0c14.895 44.195 14.93 95.46.105 140.68-14.895 44.195-44.25 82.156-82.352 108.773-38.082 26.625-87.86 45.418-140.59 45.418-2.884 0-5.742-.043-8.621-.125-28.383-16.883-50.289-39.645-66.484-67.457C7.122 345.613 0 314.55 0 282.969c0-31.597 7.125-62.664 20.918-90.476 16.195-27.812 38.102-50.57 66.484-67.457a306.2 306.2 0 018.621-.117c52.73 0 102.508 18.793 140.59 45.414zm0 0"/>
</svg>
