<svg xmlns="http://www.w3.org/2000/svg" viewBox="0 0 128 128">
  <path fill="#1572B6" d="M18.814 114.094l-10.249-114.094h110.87l-10.244 114.094 48.365-13.713L64 19.977 18.814 100.381z"/>
  <path fill="#33A9DC" d="M64 107.667L106.125 94.5 117.063 19.977H64V107.667z"/>
  <path fill="#fff" d="M64 52.208H46.792v13.417H64v12.791c0 14.039-7.775 21.062-19.084 21.062-10.421 0-16.792-7.5-16.792-21.166h13.458c.166 3.834 2.25 6.5 6.333 6.5 4.417 0 6.375-2.75 6.375-6.583v-2.542c-1 1.5-3.084 3.709-8.166 3.709-6.084 0-10.584-4.917-10.584-12.209 0-7.001 4.667-12.459 11.75-12.459 3.125 0 5.792 1.5 7.209 4.001l9.834-4.584c-4.084-7.751-10.292-11.125-17.834-11.125-11.417 0-21.166 9.166-21.166 21.166 0 12.584 9.5 21.25 21.333 21.25 4.834 0 8.667-1.334 11.875-3.501V52.208z"/>
</svg>
