<svg version="1.0" xmlns="http://www.w3.org/2000/svg"
 width="512.000000pt" height="512.000000pt" viewBox="0 0 512.000000 512.000000"
 preserveAspectRatio="xMidYMid meet">

<g transform="translate(0.000000,512.000000) scale(0.100000,-0.100000)"
fill="#000000" stroke="none">
<path d="M2340 5104 c-354 -35 -666 -248 -771 -576 -27 -107 -28 -126 -33
-837 l-6 -724 -350 -3 c-413 -4 -512 -13 -618 -62 -230 -113 -349 -321 -320
-566 13 -97 54 -199 123 -303 115 -158 281 -282 476 -352 181 -67 363 -87
544 -58 107 18 320 80 320 88 0 4 -15 31 -33 60 -57 94 -55 193 10 342 44
97 82 153 145 206 89 75 221 123 375 136 l69 6 6 73 c12 124 67 203 175 247
102 42 224 28 316 -35 30 -19 64 -42 77 -52 12 -11 23 -19 26 -17 4 3 1 27
-5 54 -10 50 -10 53 14 97 27 48 32 94 13 147 -20 56 -20 56 10 150 47 157
70 296 70 429 0 180 -36 302 -133 447 -103 153 -267 273 -453 319 -98 24
-297 29 -396 9z m365 -106 c155 -33 271 -107 369 -225 111 -134 156 -269 141
-428 -5 -61 -14 -97 -29 -122 -39 -63 -134 -103 -265 -113 -89 -7 -142 9 -246
67 -53 29 -107 55 -120 59 -12 5 -14 1 -9 -17 7 -29 6 -30 -24 -44 -23 -11
-41 -29 -50 -53 -16 -40 -16 -228 0 -281 26 -81 82 -146 157 -179 43 -18 56
-20 125 -12 57 7 86 16 122 37 82 43 134 100 169 188 18 41 21 63 18 137 -3
102 -29 171 -103 287 -46 69 -65 87 -154 133 -101 51 -155 64 -259 61 -37 0
-89 -4 -115 -9 -55 -11 -108 -44 -148 -91 -49 -57 -61 -107 -61 -272 0 -111
-2 -137 -15 -147 -42 -31 -103 -7 -141 57 -25 38 -26 47 -26 178 0 130 1 139
24 176 14 23 29 42 33 42 3 0 51 -7 107 -15z m-90 -1140 l29 -13 0 -45 0 -45
-29 -13 c-70 -30 -150 -102 -193 -169 -31 -52 -65 -148 -65 -185 0 -10 10 -13
42 -13 37 0 45 -4 49 -21 11 -43 114 -88 250 -107 95 -14 300 -7 390 14 125
30 241 84 328 152 64 49 177 161 194 194 l16 29 -17 20 c-17 19 -30 21 -152
21 -112 0 -137 -3 -187 -21 -39 -14 -99 -50 -141 -87 -32 -28 -67 -65 -77 -82
-10 -17 -36 -44 -59 -59 -23 -15 -49 -37 -57 -48 -8 -11 -28 -28 -44 -37 -17
-9 -44 -34 -61 -56 -18 -22 -49 -50 -68 -63 -19 -14 -42 -37 -51 -50 -10 -12
-34 -33 -53 -47 -19 -14 -40 -32 -47 -40 -7 -9 -24 -21 -37 -28 -14 -7 -46 -35
-72 -62 -61 -64 -126 -118 -206 -168 -107 -67 -168 -85 -312 -87 -68 -1 -131
-5 -141 -8 -20 -7 -153 16 -195 32 -53 22 -115 72 -161 130 -61 77 -74 104
-89 202 -7 50 -14 106 -17 124 l-4 33 -29 0 -29 0 -4 -187 c-4 -185 -3 -188
34 -248 28 -44 73 -89 117 -116 53 -35 79 -43 158 -48 l91 -6 0 45 0 45 -30
13 c-54 24 -72 46 -86 114 -4 22 -13 63 -20 90 l-13 48 -24 -22 c-68 -61
-191 -101 -283 -94 -108 8 -223 60 -290 130 -47 47 -68 78 -93 138 -26 62
-28 77 -28 214 0 133 2 150 21 180 33 49 116 94 191 107 l50 10 -1 45 -2 45
-30 13 c-52 24 -72 46 -86 114 -4 22 -13 63 -20 90 l-13 48 -24 -22 c-68
-61 -191 -101 -283 -94 -108 8 -223 60 -290 130 -47 47 -68 78 -93 138 -26
62 -28 77 -28 214 0 133 2 150 21 180 34 51 123 99 200 109 55 8 94 2 143
-22z m1064 -1462 l-4 -241 -109 7 c-145 10 -199 24 -259 67 -33 24 -65 53
-72 64 -19 30 -10 98 18 140 46 69 176 102 426 102 l167 0 -4 -72z m-462 4
l0 -45 -45 0 -45 0 -3 43 c-2 23 -1 43 2 43 3 0 22 -17 43 -38 21 -21 40 -38
43 -38 3 0 5 20 5 45 l0 45 -45 0 -45 0 0 -45z m-548 -149 l0 -195 -69 0
-69 0 0 195 0 195 69 0 69 0 0 -195z m292 -155 c0 -5 -4 -10 -10 -10 -5 0
-10 5 -10 10 0 6 5 10 10 10 6 0 10 -4 10 -10z m-220 -240 l0 -205 -70 0 -70
0 0 205 0 205 70 0 70 0 0 -205z m230 160 c0 -5 -4 -10 -10 -10 -5 0 -10 5
-10 10 0 6 5 10 10 10 6 0 10 -4 10 -10z"/>
</g>
</svg>
