<svg xmlns="http://www.w3.org/2000/svg" viewBox="0 0 512 512">
  <path fill="#5382A1" d="M256 0c-6.535 0-13.066.062-19.59.172C115.99 3.47 0 56.665 0 126.217c0 13.535 1.48 26.867 4.465 39.906 1.72 7.43 3.894 14.762 6.684 22 23.898 70.574 68.07 129.945 126.395 170.95 47.586 32.035 104.094 48.558 163.465 48.558 6.348 0 12.68-.082 19.03-.238 69.55-3.27 125.195-25.524 165.66-65.937C486.21 269.058 512 200.836 512 126.217 512 56.665 396.98 3.47 275.59.172A296.904 296.904 0 0 0 256 0zm0 30c121.438 0 220 98.531 220 219.217 0 73.203-23.84 142.524-66.133 198.963-39.94 53.375-99.91 86.273-164.195 97.25-4.965.894-9.957 1.554-14.965 1.96-6.49-16.375-14.02-31.785-22.566-46.125-30.54-52.97-67.875-99.58-110.23-135.624-45.957-39.516-99.902-64.852-155.27-74.59-1.097-.215-2.188-.43-3.285-.644C41.235 242.216 30 213.9 30 187.217 30 96.53 126.966 30 256 30zm0 60c-114.69 0-207.813 93.657-207.813 207.217 0 24.37 4.285 47.855 12.723 70.59 48.89 18.77 94.71 50.016 134.84 91.25 17.426 18.578 32.3 38.32 44.282 58.906 5.605-4.457 11.11-9.016 16.54-13.676 37.44-32.95 76.004-57.92 115.336-74.907 23.762-10.25 48.476-15.414 73.433-15.414 114.687 0 207.813-93.657 207.813-207.217C463.813 116.657 370.687 90 256 90z"/>
  <path fill="#36648B" d="M463.813 116.657C370.687 90 277.562 183.657 277.562 297.217c0 30.797 6.773 60.712 20.13 88.864 6.81 14.25 14.098 27.793 21.75 40.468 32.188-24.78 58.98-56.953 79.093-94.97 22.195-41.71 33.874-87.617 33.874-134.125 0-94.313-61.16-178.468-152.53-207.125a296.904 296.904 0 0 1 36.41 19.348c86.26 36.57 148.26 117.086 148.26 207.217z"/>
</svg>
